<svg width="49" height="50" viewBox="0 0 49 50" fill="none" xmlns="http://www.w3.org/2000/svg">
<path d="M17.9226 43.9166C17.4509 43.7594 17.0841 43.7594 16.8744 43.7594L16.6124 44.2835C16.822 44.1787 17.2413 44.0214 17.713 44.1786C18.499 44.4407 18.8135 45.122 18.6039 46.0129L18.3942 45.9605C17.8178 45.8033 17.3985 45.646 16.822 45.3316L16.6124 45.9605C17.2413 46.0653 17.713 46.1701 18.237 46.3273L18.4466 46.3797C18.1322 47.3754 17.4509 47.7947 16.6124 47.5327C15.9311 47.323 15.6691 46.6942 15.6691 46.6942L15.4595 47.4279C15.4595 47.4279 15.8787 47.6899 16.5076 47.8995C17.8178 48.3188 18.9183 47.7947 19.3376 46.4845C19.8092 45.2792 19.2327 44.2835 17.9226 43.9166Z" fill="#191919"/>
<path d="M4.14022 33.6449C4.14022 34.1166 3.77337 34.5358 3.24931 34.5358C2.77765 34.5358 2.3584 34.169 2.3584 33.6449C2.3584 33.1209 2.72524 32.754 3.24931 32.754C3.72096 32.754 4.14022 33.1733 4.14022 33.6449Z" fill="#191919"/>
<path d="M45.8033 33.5402C45.8033 34.0119 45.4365 34.4311 44.9124 34.4311C44.4407 34.4311 44.0215 34.0643 44.0215 33.5402C44.0215 33.0685 44.3883 32.6493 44.9124 32.6493C45.4365 32.6493 45.8033 33.0685 45.8033 33.5402Z" fill="#191919"/>
<path d="M27.4609 26.0459C27.5133 26.5176 27.5133 26.9892 27.5133 28.247C27.5133 29.6095 27.5133 30.186 27.4609 30.6053H28.4567C28.4043 30.1336 28.4043 29.6095 28.4043 28.247C28.4043 26.9892 28.4043 26.4652 28.4567 26.0459H27.4609Z" fill="#191919"/>
<path d="M29.3477 29.4C29.3477 30.2385 29.9765 30.7101 31.0247 30.7101C32.1252 30.7101 32.7541 30.2385 32.7541 29.3476C32.7541 28.7711 32.4396 28.4043 31.8632 28.1946C32.3348 28.0374 32.5969 27.6706 32.5969 27.1465C32.5969 26.3604 32.0204 25.9412 31.0771 25.9412C30.0813 25.9412 29.5049 26.4128 29.5049 27.1989C29.5049 27.723 29.7669 28.0374 30.2386 28.247C29.6621 28.4043 29.3477 28.8235 29.3477 29.4ZM31.0247 26.3604C31.4439 26.3604 31.7059 26.6748 31.7059 27.1989C31.7059 27.723 31.4439 28.0374 31.0771 28.0374C30.6578 28.0374 30.3958 27.723 30.3958 27.1989C30.3958 26.6748 30.6054 26.3604 31.0247 26.3604ZM31.0247 28.4567C31.4963 28.4567 31.8108 28.8235 31.8108 29.4C31.8108 29.9765 31.5487 30.2909 31.0771 30.2909C30.6054 30.2909 30.291 29.9241 30.291 29.3476C30.291 28.8235 30.553 28.4567 31.0247 28.4567Z" fill="#191919"/>
<path d="M33.3311 29.4C33.3311 30.2385 33.9599 30.7101 35.0081 30.7101C36.1086 30.7101 36.7375 30.2385 36.7375 29.3476C36.7375 28.7711 36.423 28.4043 35.8466 28.1946C36.3182 28.0374 36.5803 27.6706 36.5803 27.1465C36.5803 26.3604 36.0038 25.9412 35.0605 25.9412C34.0647 25.9412 33.4883 26.4128 33.4883 27.1989C33.4883 27.723 33.7503 28.0374 34.222 28.247C33.6455 28.4043 33.3311 28.8235 33.3311 29.4ZM35.0081 26.3604C35.4273 26.3604 35.6893 26.6748 35.6893 27.1989C35.6893 27.723 35.4273 28.0374 35.0605 28.0374C34.6412 28.0374 34.3792 27.723 34.3792 27.1989C34.3792 26.6748 34.6412 26.3604 35.0081 26.3604ZM35.0081 28.4567C35.4797 28.4567 35.7942 28.8235 35.7942 29.4C35.7942 29.9765 35.5321 30.2909 35.0605 30.2909C34.5888 30.2909 34.3268 29.9241 34.3268 29.3476C34.2744 28.8235 34.5888 28.4567 35.0081 28.4567Z" fill="#191919"/>
<path d="M39.3572 27.6705C38.8331 27.6705 38.5187 27.8802 38.309 28.1422C38.3614 27.0941 38.6235 26.4128 39.3572 26.4128C39.9336 26.4128 40.2481 26.9893 40.2481 26.9893V26.1507C40.2481 26.1507 39.9336 25.9935 39.3048 25.9935C38.1518 25.9935 37.3657 26.8844 37.3657 28.4566C37.3657 30.0288 37.9946 30.7625 39.0951 30.7625C40.0909 30.7625 40.7197 30.1336 40.7197 29.1379C40.6673 28.1946 40.1957 27.6705 39.3572 27.6705ZM39.1475 30.2385C38.6759 30.2385 38.3614 29.8716 38.3614 28.6139C38.5187 28.4042 38.7807 28.1946 39.0951 28.1946C39.5668 28.1946 39.8288 28.509 39.8288 29.1379C39.7764 29.8716 39.5668 30.2385 39.1475 30.2385Z" fill="#191919"/>
<path d="M36.1602 12.7346C29.7142 6.23624 19.2853 6.23624 12.8917 12.7346C9.74732 15.879 8.17513 19.9667 8.07031 24.1068V24.1593C8.07031 24.3165 8.07031 24.5261 8.07031 24.6833C8.07031 24.6309 8.07031 24.5261 8.07031 24.4737C8.07031 25.8887 8.22753 27.3036 8.59438 28.771C10.9003 37.6801 19.8618 43.0256 28.6661 40.7197C32.8062 39.6192 36.1602 37.0512 38.3088 33.6448H38.2564C36.265 36.5272 33.3302 38.7282 29.7142 39.6716C21.696 41.7678 13.4682 36.894 11.3719 28.771C10.9527 27.1988 10.8479 25.679 10.9003 24.1593H11.5815C11.5291 25.417 11.6864 26.6748 12.0008 27.9325C13.8874 35.217 21.2243 39.5667 28.4564 37.6801C31.0768 36.9988 33.3302 35.5315 35.0072 33.6448C32.8586 35.6887 29.9238 36.9988 26.727 36.9988C23.2682 36.9988 20.1762 35.5315 17.9751 33.1732C17.9227 33.1208 17.9227 33.1208 17.8703 33.0683C17.8179 33.0159 17.8179 32.9635 17.7655 32.9635C16.5078 31.5486 15.5644 29.8716 15.0928 27.8801C14.7783 26.6224 14.6735 25.417 14.7259 24.1593H15.512C15.4596 25.2074 15.5644 26.2555 15.8265 27.3036C17.2414 32.9111 22.9013 36.2651 28.4564 34.7978C29.3997 34.5357 30.2906 34.1689 31.1292 33.6448H30.9195C29.819 34.1165 28.6136 34.3785 27.3559 34.3785C22.3773 34.3785 18.3944 30.3432 18.3944 25.3122C18.3944 24.8929 18.4468 24.5261 18.4992 24.1068H20.8575H30.5527H33.6971H38.1516H41.034C40.8768 20.0191 39.2522 15.9314 36.1602 12.7346ZM13.2586 23.6876C13.573 22.0106 14.3591 20.386 15.6168 19.1282C19.0233 15.6694 24.5784 15.6694 27.9848 19.1282C28.8757 20.0191 29.5046 21.0673 29.9238 22.1678L13.2586 23.6876ZM30.6575 17.7657C26.6222 13.678 20.0714 13.678 16.0361 17.7657C14.3591 19.4427 13.4158 21.5389 13.1537 23.74L10.481 23.9496C10.7954 21.3817 11.9484 18.8662 13.8874 16.8748C18.604 12.1058 26.2554 12.1058 30.9719 16.8748C32.3869 18.2897 33.3302 20.0191 33.9067 21.801L33.1206 21.8534C32.6489 20.3336 31.8628 18.9186 30.6575 17.7657ZM37.1035 21.4865C36.527 19.1806 35.3741 17.032 33.5923 15.2502C28.2992 9.90469 19.7045 9.90469 14.4115 15.2502C12.0008 17.6608 10.743 20.7528 10.481 23.9496L8.90882 24.1068L8.07031 24.1593C8.27994 20.5432 9.69491 16.9796 12.42 14.2544C18.2896 8.3325 27.8276 8.3325 33.6971 14.2544C35.7409 16.2983 37.0511 18.8138 37.68 21.4865H37.1035Z" fill="#191919"/>
<path d="M5.13595 36.3176C6.23649 35.4791 7.38943 35.7411 8.17553 36.8417C8.54237 37.3657 8.752 37.8374 8.752 37.8374L8.12312 38.309C8.12312 38.309 8.33275 37.6802 7.91349 37.1037C7.38943 36.4224 6.55093 36.37 5.66002 37.0513C4.82152 37.6802 4.61189 38.4663 5.13595 39.1999C5.60761 39.8288 6.13167 39.8812 6.13167 39.8812L5.76483 40.2481C5.76483 40.2481 5.24077 40.0385 4.7167 39.2524C3.98301 38.2042 4.08782 37.0513 5.13595 36.3176Z" fill="#191919"/>
<path d="M10.0625 41.8204C9.22398 42.7113 8.90955 43.0258 8.64751 43.3402L8.01864 42.7113C8.33308 42.4493 8.69992 42.1349 9.53842 41.244L10.639 40.1434L9.3812 38.8857L8.28067 39.9862C7.44217 40.8771 7.12772 41.1915 6.86569 41.506L6.23682 40.8771C6.55126 40.6151 6.9181 40.3006 7.7566 39.4097C8.5427 38.6236 8.80473 38.3092 9.06677 37.9948L11.5299 40.4579C11.163 40.7199 10.8486 41.0343 10.0625 41.8204Z" fill="#191919"/>
<path d="M12.6301 44.7027C12.1585 45.384 11.32 45.4364 10.5863 44.9123C9.85258 44.3883 9.59055 43.6022 10.4815 42.3968C11.32 41.1915 12.0537 41.0867 13.1542 41.7155L13.6258 41.9776C13.8879 42.1348 14.0975 42.1348 14.0975 42.1348L13.6258 42.8161L12.7349 42.2396C11.9488 41.7155 11.4772 41.768 10.9007 42.5016C11.32 42.292 11.844 42.3444 12.3157 42.7113C12.9446 43.2353 13.1018 44.0214 12.6301 44.7027ZM11.9488 44.1787C12.3157 43.6546 12.3157 43.1829 12.0012 42.9209C11.6868 42.6589 11.1627 42.8161 10.8483 43.3401C10.4815 43.8642 10.4815 44.3359 10.7959 44.5979C11.1103 44.8599 11.582 44.7027 11.9488 44.1787Z" fill="#191919"/>
<path d="M16.508 44.1787C16.0887 43.707 15.7219 43.5498 15.1978 43.2878L15.093 43.2354L14.4117 44.6503C13.8876 45.7509 13.678 46.1701 13.5732 46.5894L12.7871 46.1701C12.9967 45.8557 13.2064 45.384 13.7828 44.3359C14.2545 43.3402 14.4641 42.9209 14.5689 42.5541L16.8224 43.6546L16.508 44.1787Z" fill="#191919"/>
<path d="M22.9015 44.9124L22.8491 45.4888C22.4299 45.2268 22.1154 45.1744 21.801 45.122H21.6962L21.4866 46.6942C21.3294 47.8995 21.2769 48.3712 21.2769 48.7905L20.386 48.6856C20.4908 48.3188 20.5433 47.7947 20.7005 46.5894L20.9101 45.0172H20.8053C20.4384 44.9648 20.124 44.9648 19.6523 45.122L19.7047 44.5455L22.9015 44.9124Z" fill="#191919"/>
<path d="M26.8319 44.9124C26.465 45.4888 26.3078 46.1177 25.8885 47.1658C25.3645 48.4236 25.05 49.0525 24.2115 49.0525C23.8971 49.0525 23.7399 48.9476 23.7399 48.9476V48.2664C23.7399 48.2664 24.0019 48.5284 24.3163 48.5284C24.5784 48.5284 24.788 48.3712 24.9452 48.1616L23.4778 45.8033C23.3206 45.4888 23.2158 45.384 22.9014 44.9648H23.9495C24.0543 45.384 24.1067 45.5412 24.4736 46.1177L25.3121 47.4279C25.3645 47.3231 25.4169 47.1658 25.4693 47.061C25.8885 45.9081 25.9933 45.5412 25.9933 44.9124H26.8319Z" fill="#191919"/>
<path d="M28.1422 45.6984L28.4567 45.646L28.1422 46.8514L28.9283 47.7947L28.6139 47.8471L27.6182 46.9562L28.1422 45.6984ZM29.0331 45.4888L29.3476 45.4364L29.0331 46.6418L29.8192 47.5851L29.5048 47.6375L28.5091 46.7466L29.0331 45.4888Z" fill="#191919"/>
<path d="M34.1169 46.9039L33.1735 47.2707C33.0163 46.8515 32.9115 46.6942 32.3874 46.1178L31.0249 44.598L30.9725 46.5894C30.9725 47.3231 30.9725 47.5851 31.0773 48.0044L30.396 48.2664C30.4484 47.7948 30.4484 47.6376 30.5008 46.7466L30.658 43.8643L31.0249 43.7071L31.2345 43.6547L33.2784 46.013C33.6452 46.4322 33.8024 46.537 34.1169 46.9039Z" fill="#191919"/>
<path d="M36.4751 43.1304C37.1564 44.2833 36.7895 45.4887 35.6366 46.17C35.0601 46.5368 34.5885 46.6416 34.5885 46.6416L34.2216 46.0127C34.2216 46.0127 34.8505 46.2748 35.4794 45.9079C36.2131 45.4363 36.3703 44.6502 35.8462 43.7069L35.6366 43.8117C35.1125 44.1261 34.7457 44.3882 34.274 44.8074L33.9596 44.2833C34.5885 44.0213 34.9553 43.8641 35.4794 43.5496L35.6366 43.4448C35.1125 42.7111 34.3788 42.4491 33.6975 42.9208C33.0687 43.2876 33.0163 43.9165 33.0163 43.9165L32.6494 43.4448C32.6494 43.4448 32.859 42.9732 33.5927 42.5539C34.7457 41.8202 35.8462 42.0299 36.4751 43.1304Z" fill="#191919"/>
<path d="M37.9945 39.4097L38.3614 39.8813C37.8897 40.0385 37.6277 40.1958 37.3656 40.4054L37.2608 40.5102L38.2565 41.7156C39.0426 42.6589 39.3571 43.0257 39.6191 43.2877L38.9378 43.8642C38.7282 43.4974 38.4138 43.1305 37.6801 42.1872L36.6844 40.9819L36.5795 41.0343C36.3175 41.2963 36.1079 41.5059 35.8458 41.9252L35.479 41.4535L37.9945 39.4097Z" fill="#191919"/>
<path d="M42.0301 37.7326C42.921 38.5187 43.2879 38.8332 43.6547 39.0428L43.0782 39.7241C42.8162 39.4097 42.4494 39.0952 41.5584 38.3091L40.6675 37.523L41.8729 41.1391L41.2964 41.7679C41.0344 41.4535 40.7199 41.1915 39.8814 40.4578C38.9905 39.6717 38.6237 39.3572 38.2568 39.1476L38.8333 38.4663C39.0953 38.7808 39.4622 39.0952 40.3531 39.8813L41.244 40.6674L40.0387 37.0514L40.6151 36.4225C40.8772 36.7369 41.1916 36.999 42.0301 37.7326Z" fill="#191919"/>
<path d="M43.7595 37.7851L43.6023 38.0471L42.9734 36.9466L41.7681 36.8417L41.9253 36.5797L43.2354 36.5273L43.7595 37.7851ZM44.2312 36.999L44.074 37.261L43.4451 36.1605L42.2397 36.0556L42.3969 35.7936L43.7071 35.7412L44.2312 36.999Z" fill="#191919"/>
<path d="M1.88648 27.5134C2.93461 27.3037 3.40626 27.1989 3.77311 27.0941L3.87793 27.8802C3.51108 27.8802 3.09183 27.985 2.0437 28.1947L0.681132 28.4567L0.99557 30.0813L2.35814 29.8193C3.40627 29.6096 3.82552 29.5048 4.19236 29.4L4.40199 30.1861C4.03514 30.1861 3.56349 30.2909 2.51536 30.5005C1.51964 30.7102 1.15279 30.7626 0.838349 30.9198L0.209473 27.8278C0.523911 27.7754 0.943162 27.723 1.88648 27.5134Z" fill="#191919"/>
<path d="M3.03958 24.0544H3.66845C3.66845 24.0544 3.66845 24.8929 3.66845 25.2598C3.66845 25.6266 3.72086 26.4127 3.72086 26.4127C3.35401 26.3603 2.93476 26.3603 1.83423 26.4127C0.838503 26.4651 0.41925 26.4651 0.104811 26.5175L0 24.2641H0.524065C0.366845 24.7881 0.366844 25.155 0.366844 25.679V25.7839L1.57219 25.7315C1.57219 25.2598 1.51979 24.9978 1.41497 24.5785H1.99145C1.88663 25.0502 1.88663 25.3122 1.88663 25.7315L3.30161 25.679V25.4694C3.30161 24.9454 3.2492 24.5261 3.03958 24.0544Z" fill="#191919"/>
<path d="M1.15294 20.9103C1.88663 20.9627 2.25348 21.4868 2.20107 22.5349V22.7969C2.88235 22.8493 3.30161 22.8493 3.66845 22.7969L3.61605 23.6354C3.2492 23.583 2.82995 23.5306 1.72941 23.4782C0.733692 23.4258 0.366845 23.4258 0 23.4258L0.0524057 22.168C0.104812 21.3295 0.471657 20.9103 1.15294 20.9103ZM1.15294 21.6964C0.681282 21.644 0.41925 21.906 0.366844 22.3777V22.6921L1.88663 22.7969V22.5873C1.93904 22.0108 1.67701 21.6964 1.15294 21.6964Z" fill="#191919"/>
<path d="M3.40628 18.2375C4.08756 18.3947 4.34959 18.9712 4.13997 19.9669L4.03515 20.3862L3.93034 21.1199C3.5635 21.0151 3.14424 20.9102 2.09611 20.7006C1.10039 20.491 0.733544 20.4386 0.366699 20.3862L0.628732 19.076C0.785951 18.2375 1.1528 17.8707 1.67686 17.9755C2.09611 18.0803 2.41055 18.3947 2.35815 18.9712C2.56777 18.3423 2.93462 18.1851 3.40628 18.2375ZM0.838358 19.7573L2.04371 20.0193L2.09611 19.7573C2.20093 19.2332 2.04371 18.9712 1.57205 18.8664C1.2052 18.814 0.94317 18.9712 0.890764 19.4429L0.838358 19.7573ZM3.30146 19.0236C2.82981 18.9188 2.51537 19.2332 2.41055 19.8097L2.35815 20.0717L3.72071 20.3338L3.77312 20.0717C3.87793 19.4953 3.72072 19.076 3.30146 19.0236Z" fill="#191919"/>
<path d="M4.19246 14.1497C3.30155 13.7305 2.9347 13.5209 2.62026 13.3636L2.25342 14.0973C2.56786 14.2022 2.9347 14.3594 3.87802 14.7786C4.87374 15.2503 5.24058 15.4599 5.55502 15.6171L5.92187 14.8834C5.60743 14.7786 5.18818 14.6214 4.19246 14.1497Z" fill="#191919"/>
<path d="M4.34963 15.4599C3.72075 15.1978 3.24909 15.5123 2.93465 16.2984L2.77744 16.7176C2.14856 16.4556 1.78171 16.2984 1.46727 16.1411L1.15283 16.8748C1.51968 16.9796 1.88652 17.1369 2.93465 17.5561C3.87797 17.923 4.24481 18.0802 4.50685 18.2898L4.76888 17.5561L4.82128 17.3465C5.24054 16.4032 5.03091 15.7219 4.34963 15.4599ZM4.55925 17.2417L4.45444 17.3989L3.03947 16.8224L3.14428 16.5604C3.35391 16.0887 3.66835 15.9839 4.0876 16.1411C4.61166 16.3508 4.76888 16.7176 4.55925 17.2417Z" fill="#191919"/>
<path d="M6.39404 10.6386C7.28495 11.2675 7.7042 11.5295 8.01864 11.6868L7.54698 12.3156C7.28495 12.0536 6.9181 11.844 6.02719 11.2151L5.13629 10.6386L6.60367 13.7306L6.23682 14.4119C5.97479 14.1499 5.60794 13.8878 4.76944 13.3638C3.87853 12.7349 3.51168 12.5253 3.19724 12.368L3.6689 11.6868C3.93094 11.9488 4.29778 12.1584 5.18869 12.7873L6.0796 13.3638L4.61222 10.2718L5.03147 9.6429C5.2411 9.85253 5.60794 10.0621 6.39404 10.6386ZM2.72559 11.2675L3.09243 10.7434C3.09243 10.7434 3.51168 11.0579 3.77372 10.691C4.03575 10.3242 3.56409 10.0622 3.56409 10.0622L3.93094 9.53809C3.93094 9.53809 4.50741 10.1146 4.03575 10.8482C3.45928 11.5819 2.72559 11.2675 2.72559 11.2675Z" fill="#191919"/>
<path d="M10.4287 6.44608C11.2672 7.33699 11.11 8.43753 10.2191 9.27603C9.74744 9.69529 9.38059 9.90491 9.38059 9.90491L8.90893 9.38085C8.90893 9.38085 9.53781 9.48566 10.0095 9.06641C10.5859 8.54234 10.5859 7.75625 9.95706 7.07496L9.79984 7.23218C9.38059 7.59903 9.11856 7.91347 8.75171 8.33272L8.38487 7.91347C8.85653 7.59903 9.17097 7.33699 9.59022 6.97015L9.74744 6.86534C9.11856 6.28887 8.48968 6.23646 7.91321 6.76052C7.44155 7.17978 7.44155 7.80865 7.44155 7.80865L7.07471 7.44181C7.07471 7.44181 7.17952 6.97015 7.75599 6.49849C8.6469 5.60758 9.69503 5.60758 10.4287 6.44608Z" fill="#191919"/>
<path d="M14.5171 6.13165L13.6786 6.60331C13.4689 6.28887 13.3641 6.18406 12.7353 5.76481L11.2155 4.71668L11.6347 6.4985C11.7919 7.12737 11.8443 7.337 12.0016 7.70385L11.4775 8.07069C11.4251 7.65144 11.3727 7.49422 11.2155 6.76053L10.6914 4.19261L11.0058 3.98299L11.1631 3.87817L13.4689 5.50277C13.9406 5.81721 14.1502 5.92203 14.5171 6.13165Z" fill="#191919"/>
<path d="M16.5607 4.55928L16.8227 5.08335C16.8227 5.08335 15.9318 5.45019 15.7222 5.555C15.5126 5.65982 14.6741 6.02666 14.6741 6.02666C14.5693 5.65982 14.4121 5.29297 13.9404 4.29725C13.5211 3.35393 13.3639 3.03949 13.1543 2.72505L15.1981 1.78174L15.4078 2.2534C14.8313 2.3058 14.5169 2.41062 14.0452 2.62024L13.9928 2.72505L14.5169 3.878C14.9361 3.66837 15.1457 3.56356 15.5126 3.30152L15.7222 3.82559C15.303 3.9304 15.0409 4.03522 14.6217 4.19244L15.1981 5.5026L15.3554 5.45019C15.8794 5.13575 16.2463 4.92613 16.5607 4.55928Z" fill="#191919"/>
<path d="M16.7177 1.25778C16.7701 1.62463 16.875 1.99148 17.1894 2.93479C17.5038 3.98292 17.6086 4.40217 17.7659 4.71661L16.9798 4.97864C16.9274 4.6118 16.8225 4.19255 16.5081 3.14442C16.1937 2.2011 16.0889 1.78185 15.9316 1.46741L16.7177 1.25778ZM20.1766 4.14014L19.076 4.40217L17.2418 2.93479L17.7135 1.99147C17.9755 1.46741 18.0803 1.20538 18.1327 0.838533L18.8664 0.628906C18.8664 0.628906 18.552 1.10057 18.2899 1.62463L17.8183 2.51554L18.6044 3.14442C19.2332 3.56367 19.6001 3.87811 20.1766 4.14014Z" fill="#191919"/>
<path d="M21.8011 0.157104L21.906 0.681169C21.4867 0.576356 21.1723 0.576357 20.9102 0.628763H20.8054L21.015 2.04374C21.1723 3.14427 21.2771 3.56353 21.3819 3.93037L20.5958 4.08759C20.5958 3.72074 20.5434 3.30149 20.3338 2.20096L20.1241 0.785982H20.0193C19.7049 0.838389 19.4429 0.943202 19.076 1.15283L18.9712 0.628763L21.8011 0.157104Z" fill="#191919"/>
<path d="M24.9981 1.04813C24.9981 1.83423 24.5264 2.25348 23.4783 2.25348H23.2163C23.2163 2.98717 23.2687 3.35402 23.3211 3.72086L22.535 3.77327C22.5874 3.40642 22.5874 2.93476 22.535 1.83423C22.4826 0.838503 22.4826 0.419252 22.4302 0.0524067L23.6879 0C24.5264 0.0524065 24.9981 0.366845 24.9981 1.04813ZM24.2644 1.10054C24.2644 0.628879 24.0024 0.366846 23.4783 0.366846H23.1639L23.2163 1.88663H23.4259C24.0548 1.93904 24.3168 1.6246 24.2644 1.10054Z" fill="#191919"/>
<path d="M25.2076 1.83423C25.3648 0.628878 26.2033 2.98023e-07 27.4087 0.15722C28.5092 0.314439 29.1381 1.10054 28.9809 2.25348C28.8236 3.45883 27.9851 4.0877 26.7798 3.93049C25.6268 3.77327 25.0504 2.98717 25.2076 1.83423ZM28.1424 2.25348C28.2472 1.25776 27.9327 0.628878 27.2514 0.524065C26.5702 0.419252 26.0985 0.943318 25.9937 1.88663C25.8889 2.88236 26.2033 3.51123 26.8846 3.61605C27.5135 3.72086 28.0375 3.19679 28.1424 2.25348Z" fill="#191919"/>
<path d="M32.0199 1.36255L31.8627 1.88662C31.4958 1.62458 31.2338 1.51977 30.9718 1.41496L30.8669 1.36255L30.5001 2.72512C30.1857 3.77325 30.0808 4.1925 30.0284 4.55935L29.2423 4.34972C29.3996 4.03528 29.5044 3.61603 29.8188 2.51549L30.1857 1.15293L30.0808 1.10052C29.7664 0.995707 29.5044 0.995706 29.0327 1.04811L29.1899 0.524048L32.0199 1.36255Z" fill="#191919"/>
<path d="M33.3829 5.24063L33.1732 5.81711C33.1732 5.81711 32.3871 5.45026 32.1251 5.34545C31.9155 5.24063 30.9722 4.87379 30.9722 4.87379C31.1294 4.55935 31.339 4.1401 31.7583 3.14438C32.1251 2.20106 32.2823 1.83421 32.3871 1.51978L34.431 2.41069L34.2214 2.93475C33.8021 2.56791 33.4877 2.41068 33.016 2.20106L32.9112 2.14865L32.492 3.24919C32.9112 3.40641 33.1732 3.51122 33.5925 3.61603L33.3829 4.1401C33.016 3.87807 32.754 3.77325 32.3871 3.56363L31.8631 4.87379L32.0203 4.9262C32.492 5.18823 32.9112 5.29304 33.3829 5.24063Z" fill="#191919"/>
<path d="M35.7938 7.3369L34.9553 6.81283C35.0601 6.44599 35.0077 6.28877 35.0077 5.65989V5.13583L34.5885 5.34545C34.0644 5.60749 33.9072 5.7647 33.6452 6.02674L32.9639 5.65989C32.9639 5.65989 33.3831 5.50267 33.8548 5.29305L35.0077 4.76898L34.9553 3.45882C34.9553 2.93476 34.8505 2.5155 34.8505 2.5155L35.689 2.98716C35.5842 3.35401 35.5842 3.56363 35.6366 4.1401V4.55936L35.951 4.40214C36.4751 4.1401 36.6847 3.98289 36.9468 3.72085L37.5232 4.0877C37.5232 4.0877 37.1564 4.24492 36.6323 4.45454L35.5842 4.9262L35.6366 6.34118C35.689 6.97005 35.7938 7.3369 35.7938 7.3369Z" fill="#191919"/>
<path d="M39.4093 7.86097C38.7281 8.69947 38.4136 9.06632 38.2564 9.38076L37.6799 8.85669C37.942 8.59466 38.204 8.33263 38.7805 7.54653L37.4703 6.4984C36.8414 7.2845 36.6318 7.59894 36.4746 7.86097L35.8457 7.38931C36.1077 7.12728 36.3698 6.81284 37.0511 5.92193C37.6799 5.13583 37.8896 4.8214 38.0992 4.50696L38.7281 5.03102C38.5184 5.24065 38.2564 5.55509 37.7323 6.18396L39.0425 7.23209C39.5666 6.55081 39.7762 6.28878 39.9858 5.97434L40.6147 6.4984C40.3003 6.76044 40.0382 7.07487 39.4093 7.86097Z" fill="#191919"/>
<path d="M42.2398 10.9529C41.4013 11.6866 41.0344 12.001 40.8248 12.263L40.3531 11.6342C40.6676 11.4245 40.982 11.1625 41.8205 10.4288L42.6066 9.74754L39.2526 10.3764L38.7285 9.79994C39.043 9.59032 39.3574 9.32828 40.1435 8.69941C40.982 7.96572 41.2964 7.70368 41.5061 7.44165L42.0301 8.07053C41.7157 8.28015 41.4012 8.54219 40.5627 9.27588L39.7766 9.95716L43.1307 9.32828L43.6023 9.90475C43.2879 10.062 42.9734 10.324 42.2398 10.9529Z" fill="#191919"/>
<path d="M43.969 13.7306C43.0257 14.307 42.6588 14.5167 42.3444 14.7787L41.9775 14.045C42.292 13.8878 42.6064 13.7306 43.3401 13.2589C43.1829 13.1541 42.8684 12.8921 42.6064 12.5252C42.2396 11.8963 42.3968 11.4771 42.9208 11.1626C43.3925 10.9006 43.7069 10.691 43.969 10.429L44.3882 11.1102C44.0214 11.2675 43.6545 11.4771 43.3401 11.6867C42.9733 11.8963 42.8684 12.1584 43.0781 12.5252C43.2353 12.7872 43.4449 12.9969 43.6021 13.1017C44.4406 12.5776 44.7551 12.368 45.0171 12.1584L45.4364 12.8397C45.1219 12.9969 44.8075 13.2065 43.969 13.7306Z" fill="#191919"/>
<path d="M44.0743 17.2417L43.5503 17.5037C43.5503 17.5037 43.1834 16.6128 43.0786 16.3508C42.9738 16.0887 42.6069 15.3026 42.6069 15.3026C42.9738 15.1978 43.3406 15.0406 44.3363 14.5689C45.2273 14.1497 45.5941 13.9925 45.9085 13.7828L46.7995 15.8791L46.3278 16.0887C46.2754 15.5123 46.1706 15.1978 45.9609 14.7262L45.9085 14.6213L44.808 15.1454C45.0176 15.5647 45.1224 15.7743 45.3845 16.1411L44.8604 16.3508C44.7556 15.8791 44.7032 15.6695 44.4936 15.2502L43.2358 15.8267L43.2882 15.9839C43.4978 16.508 43.7075 16.9272 44.0743 17.2417Z" fill="#191919"/>
<path d="M45.2788 16.8224C46.4841 16.508 47.375 17.1892 47.637 18.3422C47.7943 18.9187 47.7419 19.3379 47.7419 19.3379L47.0606 19.4951C47.0606 19.4951 47.4274 19.0235 47.2702 18.3946C47.0606 17.6085 46.3793 17.2941 45.436 17.5561C44.5451 17.7657 44.0734 18.3946 44.283 19.1807C44.4403 19.862 44.8595 20.0716 44.8595 20.0716L44.4403 20.2288C44.4403 20.2288 44.0734 19.862 43.9162 19.0235C43.6542 18.0278 44.1258 17.0844 45.2788 16.8224Z" fill="#191919"/>
<path d="M48.0568 20.7529C47.6899 20.7529 47.3231 20.8053 46.3274 20.9101C45.2268 21.015 44.8076 21.1198 44.4932 21.1722L44.3359 20.3337C44.7028 20.3337 45.1744 20.2813 46.275 20.1765C47.2707 20.0716 47.6375 20.0192 48.0044 19.9144L48.0568 20.7529ZM44.7028 23.6353L44.6504 22.5348L46.3798 20.9626L47.1659 21.5914C47.6375 21.9583 47.8472 22.1155 48.214 22.2203L48.3188 23.0064C48.3188 23.0064 47.8996 22.5872 47.4279 22.2727L46.6418 21.5914L45.9081 22.2727C45.3317 22.8492 45.0172 23.1636 44.7028 23.6353Z" fill="#191919"/>
<path d="M46.537 26.7273C45.4365 26.6749 44.9648 26.6749 44.6504 26.7273L44.7028 25.8888C45.0696 25.9412 45.4889 25.9936 46.5894 25.9936L47.6376 26.046L44.7552 24.2118V23.4257C45.122 23.4781 45.5413 23.5305 46.537 23.5305C47.6376 23.5829 48.0568 23.5829 48.4237 23.5305V24.369C48.0568 24.3166 47.6376 24.2642 46.537 24.2642L45.4889 24.2118L48.3713 26.046V26.8321C47.8996 26.7797 47.5327 26.7797 46.537 26.7273Z" fill="#191919"/>
<path d="M45.8559 30.5006C44.8077 30.291 44.3361 30.1862 43.9692 30.1862L44.1789 29.4001C44.5457 29.5049 44.965 29.6097 46.0131 29.8193L47.0612 30.029L44.4933 27.7755L44.5981 26.9894C44.9126 27.0942 45.3318 27.199 46.3275 27.3562C47.3757 27.5658 47.8473 27.6183 48.1618 27.6707L48.0045 28.4568C47.6377 28.3519 47.2184 28.2471 46.1703 28.0375L45.1222 27.8279L47.6901 30.0814L47.5329 30.815C47.2184 30.7626 46.8516 30.6578 45.8559 30.5006ZM49.0003 28.4044L48.8955 29.0332C48.8955 29.0332 48.3714 28.9284 48.319 29.3477C48.2142 29.7669 48.7906 29.8717 48.7906 29.8717L48.6858 30.5006C48.6858 30.5006 47.8997 30.2386 48.0569 29.2953C48.1618 28.4044 49.0003 28.4044 49.0003 28.4044Z" fill="#191919"/>
</svg>
