<svg width="123" height="86" viewBox="0 0 123 86" fill="none" xmlns="http://www.w3.org/2000/svg">
<rect width="123" height="86" fill="white"/>
<circle cx="61.5" cy="23.5" r="14.5" fill="#212121"/>
<path d="M57.2875 46.0719L34.8371 40.4593C30.9716 39.4929 27.7528 43.5056 29.5347 47.0693C30.147 48.294 31.2666 49.1878 32.5966 49.5135L51.6312 54.175C53.6856 54.6781 55.2615 56.3295 55.6698 58.4048C56.8191 64.2469 65.1782 64.2606 66.3275 58.4186C66.7373 56.3355 68.3235 54.6824 70.3879 54.1869L89.7591 49.5378C91.1732 49.1984 92.3518 48.226 92.9536 46.902C94.588 43.3063 91.3453 39.4137 87.5134 40.3716L64.7125 46.0719C62.275 46.6812 59.725 46.6812 57.2875 46.0719Z" fill="#212121" stroke="#020000"/>
</svg>
